<?xml version="1.0" encoding="UTF-8"?>
<svg width="40px" height="40px" viewBox="0 0 40 40" version="1.1" xmlns="http://www.w3.org/2000/svg" xmlns:xlink="http://www.w3.org/1999/xlink">
    <!-- Generator: Sketch 62 (91390) - https://sketch.com -->
    <title>消息 (2)</title>
    <desc>Created with Sketch.</desc>
    <g id="页面-1" stroke="none" stroke-width="1" fill="none" fill-rule="evenodd">
        <g id="首页-赚点钱" transform="translate(-505.000000, -1481.000000)" fill-rule="nonzero">
            <g id="消息-(2)" transform="translate(505.000000, 1481.000000)">
                <path d="M37.3717119,38.3574906 L28.911767,36.2156769 C26.1985717,37.7098547 23.1144386,38.5 20,38.5 C14.899513,38.5 10.2748815,36.4246211 6.92513016,33.0748698 C3.57537884,29.7251185 1.5,25.100487 1.5,20 C1.5,14.899513 3.57537885,10.2748815 6.92513018,6.92513018 C10.2748815,3.57537885 14.899513,1.5 20,1.5 C25.100487,1.5 29.7251185,3.57537885 33.0748698,6.92513018 C36.4246211,10.2748815 38.5,14.899513 38.5,20 C38.5,24.0958335 37.1854326,27.983323 34.6968297,31.2328696 L37.3717119,38.3574906 Z" id="路径" stroke="#999999" stroke-width="3"></path>
                <path d="M10.51356,19.9998 C10.51356,20.8359587 10.9596453,21.6086012 11.68378,22.0266805 C12.4079147,22.4447599 13.3000854,22.4447599 14.02422,22.0266805 C14.7483547,21.6086012 15.19444,20.8359587 15.19444,19.9998 C15.19444,18.7072107 14.1465893,17.65936 12.854,17.65936 C11.5614107,17.65936 10.51356,18.7072107 10.51356,19.9998 L10.51356,19.9998 Z" id="路径" fill="#999999"></path>
                <path d="M17.65932,19.9998 C17.65932,20.8359587 18.1054053,21.6086012 18.82954,22.0266805 C19.5536746,22.4447599 20.4458453,22.4447599 21.16998,22.0266805 C21.8941147,21.6086012 22.3402,20.8359587 22.3402,19.9998 C22.3402,19.1636413 21.8941147,18.3909988 21.16998,17.9729194 C20.4458453,17.5548401 19.5536746,17.5548401 18.82954,17.9729194 C18.1054053,18.3909988 17.65932,19.1636413 17.65932,19.9998 L17.65932,19.9998 Z" id="路径" fill="#999999"></path>
                <path d="M24.80512,19.9998 C24.80512,21.2923893 25.8529707,22.34024 27.14556,22.34024 C28.4381493,22.34024 29.486,21.2923893 29.486,19.9998 C29.486,18.7072107 28.4381493,17.65936 27.14556,17.65936 C25.8529707,17.65936 24.80512,18.7072107 24.80512,19.9998 Z" id="路径" fill="#999999"></path>
            </g>
        </g>
    </g>
</svg>