<?xml version="1.0" encoding="UTF-8"?>
<svg width="40px" height="40px" viewBox="0 0 40 40" version="1.1" xmlns="http://www.w3.org/2000/svg" xmlns:xlink="http://www.w3.org/1999/xlink">
    <!-- Generator: Sketch 62 (91390) - https://sketch.com -->
    <title>02</title>
    <desc>Created with Sketch.</desc>
    <g id="页面-1" stroke="none" stroke-width="1" fill="none" fill-rule="evenodd">
        <g id="首页-赚点钱" transform="translate(-505.000000, -1647.000000)" fill-rule="nonzero">
            <g id="编组-14" transform="translate(0.000000, 1579.000000)">
                <g id="02" transform="translate(505.000000, 68.000000)">
                    <path d="M37.74768,40 C37.64128,40 37.53408,39.98672 37.42852,39.95928 L29.10404,37.81168 C26.30236,39.24452 23.16572,40 20,40 C8.97191998,40 0,31.02808 0,20 C0,8.97192002 8.97192002,0 20,0 C31.02808,0 40,8.97192002 40,20 C40,24.14644 38.75332,28.09508 36.38632,31.46528 L38.94284,38.27464 C39.10988,38.72096 39.01516,39.22296 38.69684,39.577 C38.45164,39.84956 38.10504,40 37.74768,40 Z" id="路径" fill="#1677FE"></path>
                    <path d="M10.51356,19.9998 C10.51356,20.8359587 10.9596453,21.6086012 11.68378,22.0266805 C12.4079147,22.4447599 13.3000854,22.4447599 14.02422,22.0266805 C14.7483547,21.6086012 15.19444,20.8359587 15.19444,19.9998 C15.19444,18.7072107 14.1465893,17.65936 12.854,17.65936 C11.5614107,17.65936 10.51356,18.7072107 10.51356,19.9998 L10.51356,19.9998 Z" id="路径" fill="#FFFFFF"></path>
                    <path d="M17.65932,19.9998 C17.65932,20.8359587 18.1054053,21.6086012 18.82954,22.0266805 C19.5536746,22.4447599 20.4458453,22.4447599 21.16998,22.0266805 C21.8941147,21.6086012 22.3402,20.8359587 22.3402,19.9998 C22.3402,19.1636413 21.8941147,18.3909988 21.16998,17.9729194 C20.4458453,17.5548401 19.5536746,17.5548401 18.82954,17.9729194 C18.1054053,18.3909988 17.65932,19.1636413 17.65932,19.9998 L17.65932,19.9998 Z" id="路径" fill="#FFFFFF"></path>
                    <path d="M24.80512,19.9998 C24.80512,21.2923893 25.8529707,22.34024 27.14556,22.34024 C28.4381493,22.34024 29.486,21.2923893 29.486,19.9998 C29.486,18.7072107 28.4381493,17.65936 27.14556,17.65936 C25.8529707,17.65936 24.80512,18.7072107 24.80512,19.9998 Z" id="路径" fill="#FFFFFF"></path>
                </g>
            </g>
        </g>
    </g>
</svg>