<?xml version="1.0" encoding="UTF-8"?>
<svg width="40px" height="40px" viewBox="0 0 40 40" version="1.1" xmlns="http://www.w3.org/2000/svg" xmlns:xlink="http://www.w3.org/1999/xlink">
    <!-- Generator: Sketch 62 (91390) - https://sketch.com -->
    <title>05</title>
    <desc>Created with Sketch.</desc>
    <g id="页面-1" stroke="none" stroke-width="1" fill="none" fill-rule="evenodd">
        <g id="首页-赚点钱" transform="translate(-205.000000, -1647.000000)" fill="#1677FE">
            <g id="编组-14" transform="translate(0.000000, 1579.000000)">
                <g id="05" transform="translate(205.000000, 67.000000)">
                    <path d="M7.41405709,23.6761668 L7.43779476,23.6761668 C8.25966691,23.6761668 8.92592593,24.3424258 8.92592593,25.164298 L8.92592593,38.026119 C8.92592593,38.8479912 8.25966691,39.5142502 7.43779476,39.5142502 L7.41405709,39.5142502 C6.59218494,39.5142502 5.92592593,38.8479912 5.92592593,38.026119 L5.92592593,25.164298 C5.92592593,24.3424258 6.59218494,23.6761668 7.41405709,23.6761668 Z" id="矩形"></path>
                    <g id="推广">
                        <path d="M2.97626233,13.3645363 L6.59216373,13.3645363 C7.07695413,13.3645363 7.5544062,13.2461139 7.98300583,13.0195657 L28.2472197,2.30835403 C29.7004419,1.54021315 31.5012125,2.09558133 32.2693534,3.54880357 C32.4959016,3.9774032 32.6143241,4.45485527 32.6143241,4.93964567 L32.6143241,37.7945755 C32.6143241,39.4383198 31.2818061,40.7708378 29.6380618,40.7708378 C29.1071351,40.7708378 28.5858732,40.6288161 28.1283241,40.3594984 L8.0291989,28.5289652 C7.57164985,28.2596476 7.05038792,28.1176258 6.51946125,28.1176258 L2.97626233,28.1176258 C1.33251803,28.1176258 2.01300619e-16,26.7851078 0,25.1413635 L0,16.3407987 C-2.01300619e-16,14.6970544 1.33251803,13.3645363 2.97626233,13.3645363 Z" id="路径-4"></path>
                        <path d="M40,23.6130976 C40,26.6926756 37.8144715,29.3266455 34.8192402,29.8568805 L34.8192402,17.3693146 C37.8144715,17.8995496 40,20.5335195 40,23.6130976 Z" id="路径"></path>
                    </g>
                </g>
            </g>
        </g>
    </g>
</svg>