<?xml version="1.0" encoding="UTF-8"?>
<svg width="40px" height="40px" viewBox="0 0 40 40" version="1.1" xmlns="http://www.w3.org/2000/svg" xmlns:xlink="http://www.w3.org/1999/xlink">
    <!-- Generator: Sketch 62 (91390) - https://sketch.com -->
    <title>编组</title>
    <desc>Created with Sketch.</desc>
    <g id="页面-1" stroke="none" stroke-width="1" fill="none" fill-rule="evenodd">
        <g id="首页-赚点钱" transform="translate(-205.000000, -1481.000000)">
            <g id="编组" transform="translate(205.000000, 1480.000000)">
                <path d="M7.41405709,23.6761668 L7.43779476,23.6761668 C8.25966691,23.6761668 8.92592593,24.3424258 8.92592593,25.164298 L8.92592593,38.026119 C8.92592593,38.8479912 8.25966691,39.5142502 7.43779476,39.5142502 L7.41405709,39.5142502 C6.59218494,39.5142502 5.92592593,38.8479912 5.92592593,38.026119 L5.92592593,25.164298 C5.92592593,24.3424258 6.59218494,23.6761668 7.41405709,23.6761668 Z" id="矩形" fill="#999999"></path>
                <g id="推广">
                    <path d="M28.8892135,39.0668085 L8.7900883,27.2362753 C8.1019401,26.8312248 7.31796851,26.6176258 6.51946125,26.6176258 L2.97626233,26.6176258 C2.56860374,26.6176258 2.19953816,26.4523895 1.93238722,26.1852386 C1.66523629,25.9180877 1.5,25.5490221 1.5,25.1413635 L1.5,16.3407987 C1.5,15.9331401 1.66523629,15.5640745 1.93238722,15.2969236 C2.19953816,15.0297726 2.56860374,14.8645363 2.97626233,14.8645363 L6.59216373,14.8645363 C7.32128259,14.8645363 8.0393647,14.6864304 8.68397332,14.3457046 L28.9481872,3.634493 C29.3085951,3.44398939 29.7121001,3.41760493 30.0731291,3.52894836 C30.434158,3.64029179 30.7527108,3.88936311 30.9432144,4.24977107 C31.0555851,4.4623617 31.1143241,4.69918373 31.1143241,4.93964567 L31.1143241,37.7945755 C31.1143241,38.2022341 30.9490878,38.5712997 30.6819369,38.8384506 C30.4147859,39.1056015 30.0457204,39.2708378 29.6380618,39.2708378 C29.3747157,39.2708378 29.1161634,39.2003933 28.8892135,39.0668085 Z" id="路径-4" stroke="#999999" stroke-width="3"></path>
                    <path d="M40,23.6130976 C40,26.6926756 37.8144715,29.3266455 34.8192402,29.8568805 L34.8192402,17.3693146 C37.8144715,17.8995496 40,20.5335195 40,23.6130976 Z" id="路径" fill="#999999"></path>
                </g>
                <rect id="矩形" fill="#999999" x="7.40740741" y="14.7976043" width="3" height="11.8380834"></rect>
            </g>
        </g>
    </g>
</svg>