<?xml version="1.0" encoding="UTF-8"?>
<svg width="38px" height="40px" viewBox="0 0 38 40" version="1.1" xmlns="http://www.w3.org/2000/svg" xmlns:xlink="http://www.w3.org/1999/xlink">
    <!-- Generator: Sketch 62 (91390) - https://sketch.com -->
    <title>01</title>
    <desc>Created with Sketch.</desc>
    <g id="页面-1" stroke="none" stroke-width="1" fill="none" fill-rule="evenodd">
        <g id="首页-赚点钱" transform="translate(-56.000000, -1647.000000)" fill-rule="nonzero" stroke="#999999" stroke-width="2.7">
            <g id="编组-14" transform="translate(0.000000, 1579.000000)">
                <g id="01" transform="translate(56.000000, 68.000000)">
                    <path d="M30.2076536,38.6479517 L26.619295,38.6479517 C25.9886585,38.6319078 25.4207049,38.3649405 25.0089123,37.9471527 C24.5960573,37.5282872 24.3388703,36.9565643 24.3388703,36.3301347 L24.3388703,30.5999203 C24.334633,29.8844733 24.0417373,29.2356573 23.5699711,28.7667152 C23.1000937,28.2996507 22.4532456,28.0107012 21.73746,28.0107012 L16.3726178,28.0107012 C15.6615524,28.0107012 15.0119098,28.3006113 14.5394181,28.7724691 C14.0681192,29.2431359 13.7754097,29.8933242 13.7712075,30.6057442 L13.7712075,36.2412394 C13.6764683,37.0265196 13.4618205,37.5629927 13.0548572,37.9674604 C12.6171738,38.3993313 12.0197753,38.6772636 11.4244171,38.6479517 L7.78655283,38.6479517 C6.08278606,38.6479517 4.47480757,37.9851976 3.26404043,36.7800336 C2.04065459,35.5622332 1.35957422,33.9400554 1.35,32.2147395 L1.35,16.0041166 C1.36531904,14.5876811 2.04441246,13.2475634 3.1648557,12.4061966 L15.2885655,2.64489807 C16.3736011,1.78346832 17.6716513,1.35083605 18.9705488,1.35000121 C20.2702396,1.34916586 21.5692138,1.78061799 22.6490374,2.63552799 L34.8635868,12.4173358 C35.9676546,13.253581 36.6246618,14.5554861 36.65,15.9679521 L36.6500206,32.2014723 C36.6404339,33.9375904 35.9613797,35.5640391 34.7320849,36.7781273 C33.5159944,37.9838245 31.9124224,38.6479517 30.2076536,38.6479517 Z" id="路径"></path>
                </g>
            </g>
        </g>
    </g>
</svg>