<?xml version="1.0" encoding="UTF-8"?>
<svg width="38px" height="40px" viewBox="0 0 38 40" version="1.1" xmlns="http://www.w3.org/2000/svg" xmlns:xlink="http://www.w3.org/1999/xlink">
    <!-- Generator: Sketch 62 (91390) - https://sketch.com -->
    <title>我的</title>
    <desc>Created with Sketch.</desc>
    <g id="页面-1" stroke="none" stroke-width="1" fill="none" fill-rule="evenodd">
        <g id="首页-赚点钱" transform="translate(-656.000000, -1482.000000)" fill-rule="nonzero" stroke="#999999" stroke-width="3">
            <g id="我的" transform="translate(656.000000, 1482.000000)">
                <path d="M9.1,11.111109 C9.1,8.46629897 10.202954,6.06351722 11.9882214,4.32349087 C13.7782133,2.57885973 16.2533287,1.5 19,1.5 C21.7466713,1.5 24.2217867,2.57885973 26.0117786,4.32349087 C27.797046,6.06351722 28.9,8.46629897 28.9,11.111109 C28.9,13.7559189 27.797046,16.1587007 26.0117786,17.898727 C24.2217867,19.6433582 21.7466713,20.7222179 19,20.7222179 C16.2533287,20.7222179 13.7782133,19.6433582 11.9882214,17.898727 C10.202954,16.1587007 9.1,13.7559189 9.1,11.111109 Z M29.1244667,38.4999961 L8.87553333,38.4999961 C6.81538041,38.4999961 4.94302384,37.7786413 3.58973153,36.5927283 C2.31255744,35.473519 1.5,33.934252 1.5,32.222216 C1.5,30.5752388 2.26528652,29.0076198 3.5887184,27.8478746 C4.99085865,26.619156 6.89551984,25.9427028 8.87553333,25.9444358 L29.1244667,25.9444358 C31.1846196,25.9444358 33.0569762,26.6657906 34.4102685,27.8517036 C35.6874426,28.9709129 36.5,30.5101799 36.5,32.222216 C36.5,33.8691931 35.7347135,35.4368121 34.4112816,36.5965573 C33.0091413,37.8252759 31.1044802,38.5017291 29.1244667,38.4999961 Z" id="形状"></path>
            </g>
        </g>
    </g>
</svg>