<?xml version="1.0" encoding="UTF-8"?>
<svg width="38px" height="40px" viewBox="0 0 38 40" version="1.1" xmlns="http://www.w3.org/2000/svg" xmlns:xlink="http://www.w3.org/1999/xlink">
    <!-- Generator: Sketch 62 (91390) - https://sketch.com -->
    <title>04</title>
    <desc>Created with Sketch.</desc>
    <g id="页面-1" stroke="none" stroke-width="1" fill="none" fill-rule="evenodd">
        <g id="首页-赚点钱" transform="translate(-656.000000, -1648.000000)" fill="#1677FE" fill-rule="nonzero">
            <g id="编组-14" transform="translate(0.000000, 1579.000000)">
                <g id="04" transform="translate(656.000000, 69.000000)">
                    <path d="M19,22.2222179 C12.6679333,22.2222179 7.6,17.2199967 7.6,11.111109 C7.6,5.00222125 12.6679333,0 19,0 C25.3320667,0 30.4,5.00222125 30.4,11.111109 C30.4,17.2199967 25.3320667,22.2222179 19,22.2222179 Z M0,32.222216 C0,30.1580731 0.935379848,28.1785857 2.6001206,26.7197459 C4.26486134,25.2609062 6.52241125,24.4423756 8.87553333,24.4444358 L29.1244667,24.4444358 C34.0239333,24.4444358 38,27.9311057 38,32.222216 C38,34.2863588 37.0646202,36.2658462 35.3998794,37.724686 C33.7351387,39.1835258 31.4775888,40.0020564 29.1244667,39.9999961 L8.87553333,39.9999961 C3.97606667,39.9999961 0,36.5133262 0,32.222216 Z" id="形状"></path>
                </g>
            </g>
        </g>
    </g>
</svg>