<?xml version="1.0" encoding="UTF-8"?>
<svg width="88px" height="88px" viewBox="0 0 88 88" version="1.1" xmlns="http://www.w3.org/2000/svg" xmlns:xlink="http://www.w3.org/1999/xlink">
    <!-- Generator: Sketch 62 (91390) - https://sketch.com -->
    <title>03</title>
    <desc>Created with Sketch.</desc>
    <g id="页面-1" stroke="none" stroke-width="1" fill="none" fill-rule="evenodd">
        <g id="首页-赚点钱" transform="translate(-331.000000, -1589.000000)">
            <g id="编组-14" transform="translate(0.000000, 1579.000000)">
                <g id="03" transform="translate(331.000000, 10.000000)">
                    <circle id="椭圆形" fill="#1677FE" cx="44" cy="44" r="44"></circle>
                    <path d="M35.1251581,27.4518039 C34.6531817,27.4518039 34.2907712,27.3425083 34.0379267,27.1239171 C33.7850822,26.9053258 33.6080911,26.6278831 33.5069533,26.2915889 C33.4058155,25.9552948 33.3552466,25.5769638 33.3552466,25.1565961 C33.3552466,24.7362283 33.3889592,24.3410827 33.4563844,23.9711591 C33.490097,23.6012355 33.5575222,23.1976825 33.65866,22.7605 C33.7597978,22.3233176 33.9030763,21.953394 34.0884956,21.6507292 C34.2739149,21.3480644 34.5183313,21.1462879 34.8217447,21.0453997 C35.1251581,20.9445114 35.4959967,21.0285849 35.9342605,21.2976203 C36.4399495,21.6002851 37.0130637,21.9281719 37.6536031,22.2812808 C38.2941426,22.6343897 38.9178257,22.9874986 39.5246524,23.3406075 C40.1314792,23.6937163 40.6961652,24.0131958 41.2187106,24.2990459 C41.7412559,24.5848959 42.137379,24.8118945 42.4070797,24.9800416 C42.7442057,25.2154475 42.9970502,25.4760755 43.1656132,25.7619256 C43.3341762,26.0477756 43.4016014,26.316811 43.3678888,26.5690316 C43.3341762,26.8212522 43.1993258,27.0314361 42.9633376,27.1995832 C42.7273494,27.3677303 42.3902234,27.4518039 41.9519596,27.4518039 L35.1251581,27.4518039 Z M52.6725664,27.4013598 C53.1445428,27.4013598 53.5069532,27.2920642 53.7597977,27.073473 C54.0126422,26.8548817 54.1896334,26.577439 54.2907712,26.2411449 C54.391909,25.9048507 54.4424779,25.5265197 54.4424779,25.106152 C54.4424779,24.6857842 54.4256216,24.2906386 54.3919089,23.920715 C54.3244838,23.5507914 54.2486304,23.1556457 54.1643489,22.735278 C54.0800674,22.3149103 53.945217,21.953394 53.7597977,21.6507293 C53.5743784,21.3480645 53.3299621,21.146288 53.0265486,21.0453997 C52.7231352,20.9445115 52.3522966,21.0117703 51.9140328,21.2471762 C51.4083439,21.549841 50.8352296,21.8777279 50.1946902,22.2308367 C49.5541508,22.5839456 48.9220395,22.9370545 48.2983565,23.2901634 C47.6746734,23.6432723 47.1015592,23.9627518 46.5790138,24.2486018 C46.0564685,24.5344519 45.6772017,24.7614505 45.4412136,24.9295976 C45.070375,25.1650035 44.8006742,25.4256315 44.6321112,25.7114815 C44.4635482,25.9973316 44.396123,26.2663669 44.4298356,26.5185876 C44.4635481,26.7708082 44.5983985,26.980992 44.8343868,27.1491391 C45.070375,27.3172862 45.4243573,27.4013598 45.8963336,27.4013598 L52.6725664,27.4013598 Z M26.5790139,30.7306722 C25.5002107,30.7306722 24.8006743,30.9072266 24.4804046,31.2603355 C24.1601349,31.6134444 24,32.1767372 24,32.9502138 L24,37.3892971 C24,38.2300325 24.1769911,38.8521768 24.5309734,39.2557298 C24.8849557,39.6592828 25.5844922,39.8610593 26.6295828,39.8610593 L41.2439949,39.8610593 L41.2439949,30.7306722 L26.5790139,30.7306722 Z M61.2187105,30.7306722 C62.2975137,30.7306722 63.0307627,30.9408561 63.4184576,31.3612238 C63.8061525,31.7815915 64,32.3785137 64,33.1519903 L64,37.4901853 C64,38.2972913 63.8230089,38.8942135 63.4690266,39.2809518 C63.1150443,39.6676901 62.4155078,39.8610593 61.3704172,39.8610593 L46.7560051,39.8610593 L46.7560051,30.7306722 L61.2187105,30.7306722 Z M25.7193426,42.5345981 L25.7193426,50.807435 L25.7193426,54.0863033 L25.7193426,57.1633951 L25.7193426,59.7864897 L25.7193426,61.6024783 C25.7193426,63.3175787 26.2081753,64.6459407 27.1858407,65.5875644 C28.1635061,66.5291881 29.6805731,67 31.7370417,67 L41.2439949,67 L41.2439949,42.5345981 L25.7193426,42.5345981 Z M62.2300885,42.534598 L62.2300885,61.4511459 C62.1963759,63.1662462 61.7075432,64.5198303 60.7635904,65.5118981 C59.8196376,66.503966 58.3194269,66.9999999 56.2629583,66.9999999 L46.7560051,66.9999999 L46.7560051,42.534598 L62.2300885,42.534598 Z" id="形状" fill="#FFFFFF" fill-rule="nonzero"></path>
                </g>
            </g>
        </g>
    </g>
</svg>